<?xml version="1.0" encoding="UTF-8"?>
<svg width="892px" height="892px" viewBox="0 0 892 892" version="1.1" xmlns="http://www.w3.org/2000/svg" xmlns:xlink="http://www.w3.org/1999/xlink">
    <!-- Generator: Sketch 43.2 (39069) - http://www.bohemiancoding.com/sketch -->
    <title>A4</title>
    <desc>Created with Sketch.</desc>
    <defs>
        <linearGradient x1="50%" y1="0.950653699%" x2="50%" y2="97.3692602%" id="linearGradient-1">
            <stop stop-color="#F4D06F" stop-opacity="0.0649626359" offset="0%"></stop>
            <stop stop-color="#E9AE12" offset="100%"></stop>
        </linearGradient>
        <linearGradient x1="50%" y1="3.68303571%" x2="50%" y2="98.2263059%" id="linearGradient-2">
            <stop stop-color="#FFFFFF" offset="0%"></stop>
            <stop stop-color="#88CCF1" offset="100%"></stop>
        </linearGradient>
        <linearGradient x1="50%" y1="0%" x2="50%" y2="100%" id="linearGradient-3">
            <stop stop-color="#FFFFFF" stop-opacity="0.5" offset="0%"></stop>
            <stop stop-color="#595F72" offset="100%"></stop>
        </linearGradient>
        <path d="M37.3021522,335.141001 C11.8530014,319.758584 6.22754776,307.306099 1.40567808,287.351515 C-0.446650287,279.685932 -1.82091395,213.728355 6.46484034,204.268116 C9.29610413,201.035528 0.56376627,211.709116 1.40567808,225.635572 C2.24758988,239.562029 5.97499501,252.879094 9.68981939,250.713218 L294.685423,75.6666569 C342.092204,47.0116423 418.960625,47.0092974 466.375439,75.6685823 L737.395766,239.562029 C739.99911,241.137099 764.216452,256.310086 766.53338,257.986799 C769.028737,259.792636 773.380284,239.089423 772.346799,225.635572 C771.903637,219.866509 771.981282,219.547929 772.346799,233.906991 C772.712316,248.266053 773.622394,290.261295 772.346799,298.385681 C769.771336,314.789058 758.09102,330.770889 737.308392,343.332942 L479.83138,499.036373 C432.468156,527.691388 355.691794,527.693733 308.322479,499.034448 L37.3021522,335.141001 Z" id="path-4"></path>
        <linearGradient x1="50%" y1="0%" x2="50%" y2="100%" id="linearGradient-5">
            <stop stop-color="#F55158" stop-opacity="0.128141984" offset="0%"></stop>
            <stop stop-color="#9F031B" offset="100%"></stop>
        </linearGradient>
    </defs>
    <g id="Page-1" stroke="none" stroke-width="1" fill="none" fill-rule="evenodd">
        <g id="A4">
            <g id="Group" transform="translate(58.000000, 136.000000)">
                <path d="M38.6671832,434.461389 C13.2180325,419.078972 7.59257879,406.626487 2.7707091,386.671903 C0.918380735,379.00632 -0.455882924,313.048743 7.82987136,303.588505 C13.3500331,297.285874 30.9471084,335.136902 38.5734416,330.690477 L296.050454,174.987045 C343.457235,146.332031 420.325656,146.329686 467.74047,174.988971 L738.760797,338.882417 C741.364141,340.457487 743.824275,342.086334 746.141204,343.763047 C751.4782,347.625319 764.081051,299.290529 767.898411,303.588505 C779.358245,316.491159 775.945029,383.482607 773.71183,397.706069 C771.136367,414.109446 759.456051,430.091277 738.673423,442.65333 L481.196411,598.356762 C433.833187,627.011776 357.056825,627.014121 309.68751,598.354836 L38.6671832,434.461389 Z" id="Rectangle-Copy" fill="url(#linearGradient-1)"></path>
                <path d="M37.3021522,383.296341 C11.8530014,367.913923 6.22754776,355.461439 1.40567808,335.506855 C-0.446650287,327.841272 -1.82091395,261.883694 6.46484034,252.423456 C11.985002,246.120826 29.5820774,283.971854 37.2084106,279.525428 L294.685423,123.821997 C342.092204,95.1669821 418.960625,95.1646372 466.375439,123.823922 L737.395766,287.717369 C739.99911,289.292439 742.459244,290.921286 744.776173,292.597998 C750.113169,296.46027 762.71602,248.125481 766.53338,252.423456 C777.993213,265.32611 774.579998,332.317558 772.346799,346.541021 C769.771336,362.944398 758.09102,378.926228 737.308392,391.488281 L479.83138,547.191713 C432.468156,575.846728 355.691794,575.849073 308.322479,547.189788 L37.3021522,383.296341 Z" id="Rectangle-Copy-2" fill="url(#linearGradient-2)"></path>
                <g id="Rectangle-Copy-3">
                    <use fill="#D8D8D8" xlink:href="#path-4"></use>
                    <use fill="url(#linearGradient-3)" xlink:href="#path-4"></use>
                </g>
                <path d="M37.3021522,280.966244 C11.8530014,265.583826 6.22754776,253.131342 1.40567808,233.176758 C-0.446650287,225.511175 2.05686024,206.827109 10.3426145,197.366871 C15.8627762,191.064241 29.5820774,181.641757 37.2084106,177.195331 L294.685423,21.4918996 C342.092204,-7.16311496 418.960625,-7.16545992 466.375439,21.493825 L737.308392,177.195331 C739.911736,178.770401 762.029409,193.068896 765.84677,197.366871 C777.306603,210.269525 774.579998,229.987461 772.346799,244.210924 C769.771336,260.6143 758.09102,276.596131 737.308392,289.158184 L479.83138,444.861616 C432.468156,473.51663 355.691794,473.518975 308.322479,444.85969 L37.3021522,280.966244 Z" id="Rectangle-Copy-4" fill="url(#linearGradient-5)"></path>
                <path d="M426.303298,361.621456 L167.32558,209.13566 L129.296356,232.74314 L388.34087,386.471303 L426.303298,361.621456 Z M524.458715,309.814241 L411.609766,243.559531 L407.741339,229.783939 L629.20796,252.227668 L665.157418,232.74314 L411.609766,200.860452 L396.528232,78.2524272 L367.486412,94.4640399 L370.33336,224.204288 L257.450419,160.164172 L219.896283,182.448996 L485.805683,333.049858 L524.458715,309.814241 Z" id="IK" fill="#EFEFF4"></path>
            </g>
        </g>
    </g>
</svg>